<svg width="11" height="11" viewBox="0 0 11 11" fill="none" xmlns="http://www.w3.org/2000/svg">
<g id="ri:linkedin-fill">
<path id="Vector" d="M3.69578 2.32352C3.69567 2.54296 3.60839 2.75336 3.45315 2.90845C3.29791 3.06353 3.08742 3.1506 2.86798 3.15049C2.64855 3.15038 2.43814 3.0631 2.28306 2.90786C2.12797 2.75262 2.04091 2.54213 2.04102 2.32269C2.04113 2.10326 2.1284 1.89286 2.28364 1.73777C2.43888 1.58268 2.64938 1.49562 2.86881 1.49573C3.08825 1.49584 3.29865 1.58311 3.45374 1.73835C3.60882 1.8936 3.69589 2.10409 3.69578 2.32352ZM3.7206 3.76316H2.06584V8.94257H3.7206V3.76316ZM6.33512 3.76316H4.68863V8.94257H6.31858V6.22462C6.31858 4.71052 8.29188 4.56986 8.29188 6.22462V8.94257H9.92596V5.662C9.92596 3.10953 7.0053 3.20468 6.31858 4.45817L6.33512 3.76316Z" fill="#252525"/>
</g>
</svg>
