<svg width="10" height="10" viewBox="0 0 10 10" fill="none" xmlns="http://www.w3.org/2000/svg">
<path id="Vector" fill-rule="evenodd" clip-rule="evenodd" d="M8.70245 0.807251H2.0834C1.475 0.807251 0.980225 1.30202 0.980225 1.91043V8.52947C0.980225 9.13787 1.475 9.63265 2.0834 9.63265H5.39292V6.59892H4.28975V5.21995H5.39292V4.11677C5.39292 3.6779 5.56726 3.25701 5.87759 2.94668C6.18792 2.63635 6.60881 2.46201 7.04768 2.46201H8.15086V3.84098H7.59927C7.2948 3.84098 7.04768 3.8123 7.04768 4.11677V5.21995H8.42665L7.87507 6.59892H7.04768V9.63265H8.70245C9.31085 9.63265 9.80562 9.13787 9.80562 8.52947V1.91043C9.80562 1.30202 9.31085 0.807251 8.70245 0.807251Z" fill="#252525"/>
</svg>
