<svg width="60" height="60" viewBox="0 0 60 60" fill="none" xmlns="http://www.w3.org/2000/svg">
<g id="Evening">
<g id="Group">
<path id="Vector" d="M52.9667 37.9045C52.8271 36.8214 52.5208 35.7717 52.0566 34.7846C51.5809 33.7733 50.9582 32.8691 50.2056 32.0976C49.4149 31.2868 48.501 30.6449 47.4895 30.1897L47.2663 30.0893L47.257 29.8445C47.1844 27.9138 46.3731 26.1086 44.9728 24.7613C43.5728 23.4146 41.738 22.6729 39.8061 22.6729C39.2149 22.6729 38.6177 22.7505 37.98 22.9097L37.7192 22.9749L37.5629 22.7562C36.9345 21.8765 36.1913 21.1123 35.2901 20.4189C34.8887 20.1062 34.4941 19.9475 34.1179 19.9475C33.5649 19.9475 33.086 20.3147 32.8983 20.8829C32.7339 21.3809 32.8071 22.0977 33.5059 22.6159C33.9742 22.9609 34.3954 23.342 34.7578 23.7486C35.0499 24.0458 35.618 24.873 36.1742 25.6941L36.2014 25.7338C36.4998 26.167 36.64 26.3435 36.8273 26.3435C36.9382 26.3435 37.0882 26.2955 37.271 26.2018C38.1517 25.7397 39.0482 25.5054 39.9355 25.5054C41.2915 25.5054 42.4999 26.0553 43.3379 27.0536C44.2725 28.1668 44.6254 29.6989 44.3317 31.3695L44.3309 31.3732C44.3047 31.5112 44.2247 31.9312 44.2914 32.0344C44.336 32.1031 44.5419 32.182 44.9039 32.2689C45.0468 32.2938 45.2071 32.3374 45.4372 32.4138C49.1484 33.4395 50.4424 36.8413 50.0743 39.569C49.7058 42.3003 47.5902 45.0562 43.6954 45.0562C41.015 45.063 38.0729 45.0663 34.7008 45.0663C31.6643 45.0663 28.487 45.0636 25.6839 45.0614C22.7376 45.0588 19.691 45.0564 16.6984 45.0564H16.6857L16.6731 45.0557C14.7931 44.9351 13.0615 44.1199 11.7977 42.7608C10.4587 41.3294 9.76259 39.4537 9.83759 37.4794C9.9124 35.5104 10.7437 33.6868 12.1787 32.3445C13.1572 31.4326 14.1643 30.9139 15.6531 30.5545C16.0204 30.4627 16.0859 30.4372 16.1526 30.3611C16.2179 30.2863 16.2379 30.1909 16.2592 29.8503L16.2598 29.8416C16.3812 28.4086 16.7116 27.2252 17.2992 26.1177C17.6333 25.4875 17.7816 24.9023 17.7277 24.4252C17.6837 24.0356 17.5034 23.7283 17.2052 23.5352C17.0065 23.4048 16.7974 23.3386 16.5839 23.3386C15.9773 23.3386 15.3546 23.8745 14.783 24.8882C14.2365 25.8978 13.9414 26.7491 13.6945 28.0281L13.6534 28.2413L13.4513 28.3206C12.271 28.7842 11.1649 29.4764 10.2531 30.3214C9.25277 31.2579 8.46563 32.3619 7.91338 33.6028C7.37987 34.8016 7.08697 36.0774 7.04295 37.3945C6.99874 38.7118 7.20559 40.004 7.65778 41.2351C8.12575 42.5097 8.83769 43.6628 9.77344 44.6623C11.5496 46.548 13.9315 47.6839 16.481 47.8615C18.3117 47.8161 20.2712 47.794 22.4714 47.794C25.0985 47.794 27.7682 47.8256 30.3514 47.8562C32.9313 47.8868 35.5988 47.9182 38.2215 47.9182H38.2225C40.2367 47.9182 42.0384 47.8998 43.7303 47.8619C45.076 47.83 46.3157 47.6229 47.4149 47.2463C48.4353 46.8968 49.3436 46.3986 50.1148 45.7656C51.5308 44.6033 52.4813 42.9887 52.864 41.0965C53.0727 40.0672 53.107 38.9933 52.9667 37.9045Z" fill="#242424"/>
<path id="Vector_2" d="M21.4433 29.6767L21.4455 29.6797C22.5753 31.1505 24.1193 32.2949 25.9117 32.9893C27.1652 33.4812 28.4675 33.7306 29.7824 33.7306C30.3252 33.7306 30.8704 33.6866 31.4035 33.6C32.2435 33.4673 33.0666 33.2293 33.8499 32.8924C34.6635 32.5424 35.438 32.0843 36.1517 31.5303C36.6683 31.1286 37.0289 30.6545 37.1945 30.1593C37.3324 29.7251 37.3247 29.2932 37.172 28.9103C37.0188 28.5264 36.7259 28.2071 36.3242 27.9864C35.9536 27.8025 35.5158 27.7091 35.0233 27.7091C34.8743 27.7091 34.7184 27.7178 34.5581 27.7352L34.5524 27.7358C34.3959 27.7498 34.2372 27.7569 34.0805 27.7569C32.9165 27.7569 31.8041 27.3783 30.8631 26.6612L30.8601 26.6589C28.7468 25.007 28.2097 21.8307 29.6622 19.5792C30.3771 18.4558 31.4806 17.6566 32.7699 17.3283C33.7463 17.0812 34.5362 16.4611 34.7819 15.7486C34.96 15.2324 34.8386 14.6812 34.4302 14.153L34.4275 14.1492C34.1324 13.7557 33.622 13.4191 32.9902 13.2014C31.8934 12.8454 30.7744 12.6648 29.6646 12.6648C29.0521 12.6648 28.4422 12.7206 27.8519 12.8308C26.012 13.173 24.2782 14.0097 22.8394 15.2494C21.4125 16.4978 20.342 18.0959 19.7433 19.8703C19.2082 21.4754 19.0843 23.2445 19.3847 24.9861C19.6861 26.7321 20.3974 28.3535 21.4433 29.6767ZM22.0236 20.6178C22.46 19.2855 23.2892 18.0606 24.4213 17.0757C25.5146 16.1042 26.8469 15.4549 28.2727 15.1977C29.1108 15.0416 29.485 14.9863 29.7031 14.9863C30.0445 14.9863 30.1736 15.1533 30.222 15.2934C30.3359 15.6236 30.0834 15.821 29.665 16.1484C29.5051 16.2736 29.306 16.4293 29.1003 16.6081L29.0973 16.6107C28.5652 17.0609 28.0599 17.641 27.6368 18.2866C26.5911 19.9106 26.2097 21.8569 26.5628 23.7685L26.5638 23.7742C26.8761 25.6688 27.8837 27.3635 29.4001 28.5454C30.0524 29.0491 30.9205 29.3852 31.5545 29.6308C32.3059 29.9219 32.7198 30.0822 32.673 30.5116C32.6254 30.9476 32.1357 31.0676 31.0296 31.2374C30.6197 31.3045 30.1987 31.3384 29.7785 31.3384C28.7586 31.3384 27.7489 31.1448 26.7782 30.7635C25.4019 30.2324 24.2097 29.3523 23.3308 28.2191C21.7204 26.1579 21.195 23.103 22.0236 20.6178Z" fill="#242424"/>
</g>
</g>
</svg>
