<svg width="61" height="60" viewBox="0 0 61 60" fill="none" xmlns="http://www.w3.org/2000/svg">
<g id="Light">
<path id="Vector" d="M30.4261 44.9744C32.47 44.9744 34.1269 43.3175 34.1269 41.2737H26.7253C26.7253 43.3175 28.3822 44.9744 30.4261 44.9744ZM19.5352 45.1491C20.2052 45.5213 20.4466 46.3664 20.0743 47.0362L17.7613 51.1996C17.3891 51.8695 16.5443 52.1109 15.8742 51.7386C15.2042 51.3666 14.9628 50.5215 15.3351 49.8516L17.6481 45.6883C18.0203 45.0182 18.8652 44.7769 19.5352 45.1491ZM40.7779 47.0362C40.4057 46.3664 40.6471 45.5213 41.3171 45.1491C41.9871 44.7769 42.832 45.0182 43.2042 45.6883L45.5172 49.8516C45.8895 50.5215 45.648 51.3666 44.9781 51.7386C44.308 52.1109 43.4631 51.8695 43.0909 51.1996L40.7779 47.0362ZM31.8139 49.6004C31.8139 48.8339 31.1926 48.2126 30.4261 48.2126C29.6597 48.2126 29.0383 48.8339 29.0383 49.6004V54.2264C29.0383 54.9929 29.6597 55.6142 30.4261 55.6142C31.1926 55.6142 31.8139 54.9929 31.8139 54.2264V49.6004Z" fill="#242424"/>
<path id="Vector_2" d="M47.6296 37.6926C47.6514 37.9168 47.4633 38.209 47.0766 38.209H13.7696C13.3827 38.209 13.1947 37.9168 13.2166 37.6927L12.0098 37.5751L13.2166 37.6927C13.579 33.9718 15.1197 30.6933 17.7409 28.2829C20.3619 25.8727 24.1403 24.2606 29.0955 24.0163L30.2791 23.9579L30.2497 22.7733L30.2496 22.7697V5.19099C30.2496 5.09517 30.3273 5.01751 30.4231 5.01751C30.5189 5.01751 30.5966 5.09517 30.5966 5.19099V22.7697L30.5965 22.7735L30.5673 23.958L31.7507 24.0163C36.7059 24.2606 40.4843 25.8727 43.1053 28.2829C45.7265 30.6933 47.2672 33.9717 47.6296 37.6926ZM47.6296 37.6926L48.8382 37.575M47.6296 37.6926L48.8382 37.575M48.8382 37.575C48.9372 38.5921 48.0985 39.4233 47.0766 39.4233H13.7696C12.7476 39.4233 11.9089 38.5921 12.008 37.575C12.7853 29.596 18.6507 23.3155 29.0357 22.8035H31.8105C42.1955 23.3154 48.061 29.596 48.8382 37.575Z" stroke="#242424" stroke-width="2.42864"/>
</g>
</svg>
