<svg width="61" height="60" viewBox="0 0 61 60" fill="none" xmlns="http://www.w3.org/2000/svg">
<g id="Night">
<path id="Vector" d="M51.8489 33.2731C51.5311 32.9174 51.127 32.6497 50.6756 32.4958C50.2242 32.3419 49.7408 32.3069 49.2719 32.3944C46.3641 32.9344 43.3731 32.8284 40.5108 32.0838C37.6485 31.3393 34.9849 29.9746 32.7087 28.0862C30.4325 26.1978 28.5994 23.832 27.3392 21.1563C26.079 18.4807 25.4225 15.5607 25.4164 12.6032C25.4164 12.2645 25.4164 11.9234 25.44 11.5847C25.4616 11.1099 25.3608 10.6375 25.1473 10.2128C24.9337 9.78816 24.6147 9.42551 24.2206 9.15966C23.8266 8.89381 23.3709 8.73368 22.8972 8.69464C22.4234 8.65561 21.9477 8.73897 21.5154 8.93673C18.1019 10.505 15.1353 12.903 12.8863 15.9119C10.6373 18.9209 9.17738 22.445 8.6398 26.1629C8.10221 29.8808 8.50403 33.6742 9.80861 37.1969C11.1132 40.7197 13.279 43.8598 16.1085 46.3308C18.938 48.8018 22.3411 50.525 26.0075 51.3433C29.6738 52.1617 33.4867 52.049 37.0984 51.0157C40.71 49.9823 44.0055 48.0612 46.6842 45.4275C49.3629 42.7938 51.3395 39.5313 52.4339 35.9377C52.5735 35.4807 52.5931 34.9954 52.4906 34.5287C52.3881 34.062 52.1671 33.6296 51.8489 33.2731ZM30.8876 49.5281C26.2926 49.5291 21.8356 47.9581 18.2567 45.0761C14.6779 42.1942 12.1926 38.1747 11.2136 33.6852C10.2346 29.1958 10.8208 24.5065 12.8749 20.3962C14.9289 16.2859 18.3273 13.0019 22.5055 11.0897C22.5684 11.0607 22.6377 11.0484 22.7068 11.054C22.7759 11.0596 22.8423 11.083 22.8997 11.1218C22.9571 11.1606 23.0035 11.2136 23.0345 11.2756C23.0654 11.3376 23.0798 11.4066 23.0763 11.4758C23.0573 11.85 23.0478 12.2266 23.0478 12.6032C23.0547 18.5686 25.4276 24.2878 29.6458 28.506C33.864 32.7242 39.5832 35.0971 45.5486 35.104C46.9437 35.1055 48.3359 34.9786 49.7077 34.725C49.776 34.713 49.8462 34.7181 49.9119 34.7401C49.9777 34.762 50.0369 34.7999 50.0843 34.8505C50.1303 34.9027 50.1621 34.9659 50.1767 35.0339C50.1912 35.1019 50.1879 35.1726 50.1672 35.239C48.9271 39.383 46.3789 43.0142 42.9038 45.5899C39.4286 48.1655 35.2131 49.5471 30.8876 49.5281ZM35.3451 18.1526C35.3451 17.8385 35.4699 17.5373 35.692 17.3152C35.9141 17.0931 36.2153 16.9683 36.5294 16.9683H39.6463C39.8561 16.9679 40.0622 17.0231 40.2435 17.1284C40.4249 17.2337 40.5751 17.3853 40.6787 17.5677C40.7823 17.75 40.8356 17.9566 40.8331 18.1663C40.8307 18.3761 40.7726 18.5814 40.6648 18.7613L38.6137 22.1956H39.6463C39.9604 22.1956 40.2616 22.3204 40.4837 22.5425C40.7058 22.7646 40.8306 23.0658 40.8306 23.3799C40.8306 23.6939 40.7058 23.9952 40.4837 24.2173C40.2616 24.4393 39.9604 24.5641 39.6463 24.5641H36.5294C36.32 24.5643 36.1143 24.509 35.9333 24.4038C35.7522 24.2987 35.6023 24.1474 35.4988 23.9654C35.3953 23.7834 35.3418 23.5772 35.344 23.3678C35.3461 23.1584 35.4037 22.9534 35.5109 22.7735L37.5597 19.3368H36.5294C36.2153 19.3368 35.9141 19.2121 35.692 18.99C35.4699 18.7679 35.3451 18.4667 35.3451 18.1526ZM42.7206 11.9945C42.7206 11.6804 42.8454 11.3792 43.0675 11.1571C43.2896 10.935 43.5908 10.8102 43.9049 10.8102H48.6277C48.8371 10.8101 49.0427 10.8655 49.2237 10.9708C49.4047 11.076 49.5546 11.2274 49.658 11.4094C49.7603 11.59 49.8141 11.794 49.8141 12.0016C49.8141 12.2091 49.7603 12.4131 49.658 12.5937L45.9915 18.7186H48.6277C48.9418 18.7186 49.243 18.8434 49.4651 19.0655C49.6872 19.2876 49.8119 19.5888 49.8119 19.9029C49.8119 20.217 49.6872 20.5182 49.4651 20.7403C49.243 20.9624 48.9418 21.0872 48.6277 21.0872H43.9049C43.6952 21.0876 43.4891 21.0324 43.3077 20.9271C43.1263 20.8218 42.9761 20.6702 42.8726 20.4878C42.769 20.3055 42.7157 20.0989 42.7181 19.8891C42.7205 19.6794 42.7786 19.4741 42.8864 19.2942L46.541 13.1692H43.9049C43.7494 13.1692 43.5954 13.1386 43.4517 13.0791C43.308 13.0196 43.1775 12.9324 43.0675 12.8224C42.9575 12.7124 42.8703 12.5819 42.8108 12.4382C42.7513 12.2945 42.7206 12.1405 42.7206 11.985V11.9945Z" fill="#242424"/>
</g>
</svg>
