<svg width="60" height="60" viewBox="0 0 60 60" fill="none" xmlns="http://www.w3.org/2000/svg">
<path id="Vector" d="M29.8087 11.6266C34.9104 11.6266 39.529 13.6945 42.8737 17.0391C46.2155 20.3837 48.2861 25.0024 48.2861 30.104C48.2861 35.2056 46.2183 39.8243 42.8737 43.1689C39.529 46.5108 34.9104 48.5814 29.8087 48.5814C24.7071 48.5814 20.0885 46.5136 16.7438 43.1689C13.3992 39.8243 11.3314 35.2056 11.3314 30.104C11.3314 25.0024 13.3992 20.3837 16.7438 17.0391C20.0885 13.6972 24.7071 11.6266 29.8087 11.6266ZM9.00815 11.2519C8.74953 10.9931 8.60426 10.6421 8.60426 10.2763C8.60426 9.91037 8.74953 9.55945 9.00815 9.30063C9.26697 9.04201 9.61789 8.89674 9.98378 8.89674C10.3497 8.89674 10.7006 9.04201 10.9594 9.30063L15.1034 13.4474C15.6419 13.9859 15.6419 14.8602 15.1034 15.3959C14.9756 15.524 14.8237 15.6255 14.6565 15.6948C14.4893 15.7641 14.3102 15.7998 14.1292 15.7998C13.9482 15.7998 13.769 15.7641 13.6019 15.6948C13.4347 15.6255 13.2828 15.524 13.1549 15.3959L9.00815 11.2519ZM1.77207 31.4807C1.4062 31.4807 1.05533 31.3354 0.796621 31.0767C0.537917 30.818 0.392578 30.4671 0.392578 30.1012C0.392578 29.7354 0.537917 29.3845 0.796621 29.1258C1.05533 28.8671 1.4062 28.7217 1.77207 28.7217H7.63421C8.00007 28.7217 8.35095 28.8671 8.60965 29.1258C8.86836 29.3845 9.0137 29.7354 9.0137 30.1012C9.0137 30.4671 8.86836 30.818 8.60965 31.0767C8.35095 31.3354 8.00007 31.4807 7.63421 31.4807H1.77207ZM10.9594 50.9018C10.7006 51.1604 10.3497 51.3057 9.98378 51.3057C9.61789 51.3057 9.26697 51.1604 9.00815 50.9018C8.74953 50.643 8.60426 50.2921 8.60426 49.9262C8.60426 49.5603 8.74953 49.2094 9.00815 48.9506L13.1549 44.8065C13.6934 44.2681 14.5677 44.2681 15.1034 44.8065C15.2315 44.9344 15.333 45.0863 15.4023 45.2535C15.4716 45.4206 15.5073 45.5998 15.5073 45.7808C15.5073 45.9617 15.4716 46.1409 15.4023 46.3081C15.333 46.4753 15.2315 46.6271 15.1034 46.755L10.9594 50.9018ZM31.1882 58.1379C31.1882 58.5038 31.0429 58.8547 30.7842 59.1134C30.5255 59.3721 30.1746 59.5174 29.8087 59.5174C29.4429 59.5174 29.092 59.3721 28.8333 59.1134C28.5746 58.8547 28.4293 58.5038 28.4293 58.1379V52.2758C28.4293 51.9099 28.5746 51.559 28.8333 51.3003C29.092 51.0416 29.4429 50.8963 29.8087 50.8963C30.1746 50.8963 30.5255 51.0416 30.7842 51.3003C31.0429 51.559 31.1882 51.9099 31.1882 52.2758V58.1379ZM50.6093 48.9506C50.868 49.2094 51.0132 49.5603 51.0132 49.9262C51.0132 50.2921 50.868 50.643 50.6093 50.9018C50.3505 51.1604 49.9996 51.3057 49.6337 51.3057C49.2678 51.3057 48.9169 51.1604 48.6581 50.9018L44.5141 46.755C43.9756 46.2166 43.9756 45.3422 44.5141 44.8065C44.6419 44.6785 44.7938 44.5769 44.961 44.5076C45.1282 44.4383 45.3073 44.4027 45.4883 44.4027C45.6693 44.4027 45.8485 44.4383 46.0156 44.5076C46.1828 44.5769 46.3347 44.6785 46.4625 44.8065L50.6093 48.9506ZM57.8454 28.7217C58.2113 28.7217 58.5622 28.8671 58.8209 29.1258C59.0796 29.3845 59.2249 29.7354 59.2249 30.1012C59.2249 30.4671 59.0796 30.818 58.8209 31.0767C58.5622 31.3354 58.2113 31.4807 57.8454 31.4807H51.9833C51.6174 31.4807 51.2665 31.3354 51.0078 31.0767C50.7491 30.818 50.6038 30.4671 50.6038 30.1012C50.6038 29.7354 50.7491 29.3845 51.0078 29.1258C51.2665 28.8671 51.6174 28.7217 51.9833 28.7217H57.8454ZM48.6581 9.30063C48.9169 9.04201 49.2678 8.89674 49.6337 8.89674C49.9996 8.89674 50.3505 9.04201 50.6093 9.30063C50.868 9.55945 51.0132 9.91037 51.0132 10.2763C51.0132 10.6421 50.868 10.9931 50.6093 11.2519L46.4625 15.3959C45.9241 15.9344 45.0498 15.9344 44.5141 15.3959C44.386 15.268 44.2844 15.1162 44.2151 14.949C44.1458 14.7818 44.1102 14.6026 44.1102 14.4217C44.1102 14.2407 44.1458 14.0615 44.2151 13.8943C44.2844 13.7272 44.386 13.5753 44.5141 13.4474L48.6581 9.30063ZM28.4293 2.06455C28.4293 1.69869 28.5746 1.34781 28.8333 1.0891C29.092 0.830397 29.4429 0.685059 29.8087 0.685059C30.1746 0.685059 30.5255 0.830397 30.7842 1.0891C31.0429 1.34781 31.1882 1.69869 31.1882 2.06455V7.92669C31.1882 8.29255 31.0429 8.64343 30.7842 8.90213C30.5255 9.16084 30.1746 9.30618 29.8087 9.30618C29.4429 9.30618 29.092 9.16084 28.8333 8.90213C28.5746 8.64343 28.4293 8.29255 28.4293 7.92669V2.06455ZM40.9224 18.9848C38.0774 16.1426 34.1471 14.3828 29.8087 14.3828C25.4677 14.3828 21.5374 16.1398 18.6951 18.9848C15.8501 21.8298 14.0931 25.7601 14.0931 30.0985C14.0931 34.4395 15.8529 38.3698 18.6951 41.2121C21.5401 44.0543 25.4704 45.8141 29.8087 45.8141C34.1498 45.8141 38.0801 44.0543 40.9224 41.2121C43.7646 38.3671 45.5244 34.4368 45.5244 30.0985C45.5244 25.7574 43.7646 21.8271 40.9224 18.9848Z" fill="#242424"/>
</svg>
