<svg width="60" height="60" viewBox="0 0 60 60" fill="none" xmlns="http://www.w3.org/2000/svg">
<g id="Tv">
<path id="Vector" d="M50.6836 13.9803H11.1645C10.3255 13.9803 9.64453 14.6586 9.64453 15.4943V39.7176C9.64453 40.5533 10.3255 41.2316 11.1645 41.2316H24.8442V44.2595H17.2444C16.4053 44.2595 15.7244 44.9378 15.7244 45.7735C15.7244 46.6092 16.4053 47.2874 17.2444 47.2874H26.3642H35.484H44.6038C45.4428 47.2874 46.1237 46.6092 46.1237 45.7735C46.1237 44.9378 45.4428 44.2595 44.6038 44.2595H37.0039V41.2316H50.6836C51.5226 41.2316 52.2036 40.5533 52.2036 39.7176V15.4943C52.2036 14.6586 51.5226 13.9803 50.6836 13.9803ZM33.964 44.2595H27.8841V41.2316H33.964V44.2595ZM49.1637 38.2037H35.484H26.3642H12.6845V17.0083H49.1637V38.2037Z" fill="#242424"/>
</g>
</svg>
