<svg width="29" height="28" viewBox="0 0 29 28" fill="none" xmlns="http://www.w3.org/2000/svg">
<g id="Email">
<path id="Vector" d="M23.8374 22.9362H5.49976C4.53513 22.935 3.61034 22.5513 2.92825 21.8692C2.24616 21.1871 1.86246 20.2623 1.86133 19.2977V8.32251C1.86246 7.35789 2.24616 6.4331 2.92825 5.751C3.61034 5.06891 4.53513 4.68521 5.49976 4.68408H23.8374C24.8021 4.68521 25.7269 5.06891 26.4089 5.751C27.091 6.4331 27.4747 7.35789 27.4759 8.32251V19.2977C27.4747 20.2623 27.091 21.1871 26.4089 21.8692C25.7269 22.5513 24.8021 22.935 23.8374 22.9362ZM5.49976 5.96823C4.87536 5.96823 4.27654 6.21627 3.83503 6.65779C3.39352 7.0993 3.14548 7.69812 3.14548 8.32251V19.2977C3.14548 19.9221 3.39352 20.5209 3.83503 20.9624C4.27654 21.404 4.87536 21.652 5.49976 21.652H23.8374C24.4618 21.652 25.0606 21.404 25.5022 20.9624C25.9437 20.5209 26.1917 19.9221 26.1917 19.2977V8.32251C26.1917 7.69812 25.9437 7.0993 25.5022 6.65779C25.0606 6.21627 24.4618 5.96823 23.8374 5.96823H5.49976Z" fill="#232222"/>
<path id="Vector_2" d="M14.6692 16.4131C13.8771 16.4143 13.1062 16.1573 12.4733 15.6811L2.4783 8.12173C2.40768 8.07217 2.34778 8.00888 2.30216 7.93565C2.25655 7.86242 2.22616 7.78075 2.21281 7.69551C2.19946 7.61028 2.20343 7.52322 2.22447 7.43955C2.24552 7.35589 2.28321 7.27731 2.3353 7.20854C2.38738 7.13976 2.4528 7.08218 2.52763 7.03925C2.60247 6.99632 2.68519 6.9689 2.77085 6.95865C2.85652 6.9484 2.94337 6.95552 3.02622 6.97958C3.10907 7.00364 3.18623 7.04415 3.25307 7.09869L13.248 14.6666C13.6585 14.973 14.157 15.1386 14.6692 15.1386C15.1814 15.1386 15.6799 14.973 16.0903 14.6666L26.0853 7.09869C26.1521 7.04415 26.2293 7.00364 26.3121 6.97958C26.395 6.95552 26.4818 6.9484 26.5675 6.95865C26.6532 6.9689 26.7359 6.99632 26.8107 7.03925C26.8856 7.08218 26.951 7.13976 27.0031 7.20854C27.0551 7.27731 27.0928 7.35589 27.1139 7.43955C27.1349 7.52322 27.1389 7.61028 27.1255 7.69551C27.1122 7.78075 27.0818 7.86242 27.0362 7.93565C26.9906 8.00888 26.9307 8.07217 26.8601 8.12173L16.8651 15.6811C16.2322 16.1573 15.4613 16.4143 14.6692 16.4131Z" fill="#232222"/>
<path id="Vector_3" d="M2.75435 21.147C2.62412 21.1472 2.49692 21.1078 2.38961 21.034C2.28231 20.9602 2.19997 20.8555 2.15354 20.7339C2.1071 20.6122 2.09876 20.4793 2.12961 20.3528C2.16047 20.2263 2.22906 20.1121 2.3263 20.0255L10.2024 13.0012C10.3296 12.8877 10.4966 12.8293 10.6668 12.8389C10.837 12.8486 10.9964 12.9254 11.1099 13.0525C11.2234 13.1797 11.2818 13.3467 11.2722 13.5169C11.2625 13.6871 11.1857 13.8465 11.0585 13.96L3.1824 20.9843C3.06543 21.0907 2.91247 21.1489 2.75435 21.147ZM26.5796 21.147C26.4215 21.1489 26.2685 21.0907 26.1516 20.9843L18.2755 13.96C18.1483 13.8465 18.0715 13.6871 18.0618 13.5169C18.0522 13.3467 18.1106 13.1797 18.2241 13.0525C18.3376 12.9254 18.497 12.8486 18.6672 12.8389C18.8374 12.8293 19.0044 12.8877 19.1316 13.0012L27.0034 20.0255C27.1006 20.1121 27.1692 20.2263 27.2001 20.3528C27.2309 20.4793 27.2226 20.6122 27.1762 20.7339C27.1297 20.8555 27.0474 20.9602 26.9401 21.034C26.8328 21.1078 26.7056 21.1472 26.5753 21.147H26.5796Z" fill="#232222"/>
</g>
</svg>
