<svg width="12" height="10" viewBox="0 0 12 10" fill="none" xmlns="http://www.w3.org/2000/svg">
<path id="Vector" d="M11.2284 1.83345C10.8673 2.08022 10.4432 2.21126 10.0098 2.21002C10.4732 1.92885 10.8201 1.48214 10.9847 0.954766C10.6006 1.28923 10.1166 1.47758 9.61377 1.48825C9.28224 1.13848 8.84952 0.908903 8.38056 0.833963C7.9116 0.759022 7.4317 0.842764 7.01287 1.07262C6.59403 1.30248 6.25887 1.66605 6.05766 2.10878C5.85646 2.5515 5.80008 3.0495 5.89697 3.52804C5.04374 3.48164 4.20951 3.25091 3.44846 2.85084C2.68742 2.45077 2.01656 1.8903 1.47946 1.20582C1.21664 1.69569 1.13969 2.26862 1.26351 2.81359C1.38734 3.35857 1.70313 3.83681 2.14971 4.15567C1.81267 4.16057 1.47907 4.08541 1.17481 3.936C1.183 4.4415 1.35555 4.92957 1.66485 5.32212C1.97415 5.71468 2.40232 5.98904 2.88088 6.10132C2.56232 6.18701 2.22912 6.19773 1.90598 6.1327C2.04538 6.58052 2.31696 6.97238 2.68285 7.25364C3.04875 7.53491 3.49073 7.69156 3.94718 7.70177C2.98317 8.30415 1.87579 8.61919 0.748291 8.61183C1.69258 9.24684 2.78943 9.59945 3.91674 9.63042C5.04405 9.66138 6.15758 9.36949 7.13339 8.78722C8.10919 8.20496 8.90898 7.35517 9.44372 6.33246C9.97846 5.30974 10.2272 4.15423 10.1622 2.99456C10.5642 2.65591 10.9225 2.26571 11.2284 1.83345Z" fill="#252525"/>
</svg>
