<svg width="9" height="10" viewBox="0 0 9 10" fill="none" xmlns="http://www.w3.org/2000/svg">
<g id="Vector">
<path d="M4.59117 1.60473C5.7608 1.60473 5.92029 1.60473 6.39878 1.60473C6.8241 1.60473 7.03676 1.71106 7.19625 1.76422C7.40891 1.87055 7.56841 1.92372 7.7279 2.08321C7.8874 2.24271 7.99373 2.4022 8.04689 2.61486C8.10006 2.77436 8.15322 2.98702 8.20639 3.41234C8.20639 3.89082 8.20639 3.99715 8.20639 5.21995C8.20639 6.44275 8.20639 6.54908 8.20639 7.02756C8.20639 7.45288 8.10006 7.66554 8.04689 7.82504C7.94056 8.0377 7.8874 8.19719 7.7279 8.35669C7.56841 8.51618 7.40891 8.62251 7.19625 8.67568C7.03676 8.72884 6.8241 8.78201 6.39878 8.83517C5.92029 8.83517 5.81396 8.83517 4.59117 8.83517C3.36837 8.83517 3.26204 8.83517 2.78355 8.83517C2.35823 8.83517 2.14557 8.72884 1.98608 8.67568C1.77342 8.56935 1.61392 8.51618 1.45443 8.35669C1.29493 8.19719 1.1886 8.0377 1.13544 7.82504C1.08227 7.66554 1.02911 7.45288 0.975942 7.02756C0.975942 6.54908 0.975942 6.44275 0.975942 5.21995C0.975942 3.99715 0.975942 3.89082 0.975942 3.41234C0.975942 2.98702 1.08227 2.77436 1.13544 2.61486C1.24177 2.4022 1.29493 2.24271 1.45443 2.08321C1.61392 1.92372 1.77342 1.81739 1.98608 1.76422C2.14557 1.71106 2.35823 1.65789 2.78355 1.60473C3.26204 1.60473 3.42153 1.60473 4.59117 1.60473ZM4.59117 0.807251C3.36837 0.807251 3.26204 0.807251 2.78355 0.807251C2.30507 0.807251 1.98608 0.913581 1.72025 1.01991C1.45443 1.12624 1.1886 1.28574 0.922778 1.55156C0.656952 1.81739 0.550622 2.03005 0.391127 2.34904C0.284797 2.61486 0.231632 2.93385 0.178467 3.41234C0.178467 3.89082 0.178467 4.05032 0.178467 5.21995C0.178467 6.44275 0.178467 6.54908 0.178467 7.02756C0.178467 7.50605 0.284797 7.82504 0.391127 8.09086C0.497457 8.35669 0.656952 8.62251 0.922778 8.88834C1.1886 9.15416 1.40126 9.26049 1.72025 9.41999C1.98608 9.52632 2.30507 9.57948 2.78355 9.63265C3.26204 9.63265 3.42153 9.63265 4.59117 9.63265C5.7608 9.63265 5.92029 9.63265 6.39878 9.63265C6.87726 9.63265 7.19625 9.52632 7.46208 9.41999C7.7279 9.31366 7.99373 9.15416 8.25955 8.88834C8.52538 8.62251 8.63171 8.40985 8.7912 8.09086C8.89753 7.82504 8.9507 7.50605 9.00386 7.02756C9.00386 6.54908 9.00386 6.38958 9.00386 5.21995C9.00386 4.05032 9.00386 3.89082 9.00386 3.41234C9.00386 2.93385 8.89753 2.61486 8.7912 2.34904C8.68487 2.08321 8.52538 1.81739 8.25955 1.55156C7.99373 1.28574 7.78107 1.17941 7.46208 1.01991C7.19625 0.913581 6.87726 0.860416 6.39878 0.807251C5.92029 0.807251 5.81396 0.807251 4.59117 0.807251Z" fill="#252525"/>
<path d="M4.59117 2.93385C3.3152 2.93385 2.30507 3.94399 2.30507 5.21995C2.30507 6.49591 3.3152 7.50605 4.59117 7.50605C5.86713 7.50605 6.87726 6.49591 6.87726 5.21995C6.87726 3.94399 5.86713 2.93385 4.59117 2.93385ZM4.59117 6.70857C3.79369 6.70857 3.10254 6.07059 3.10254 5.21995C3.10254 4.42247 3.74052 3.73133 4.59117 3.73133C5.38864 3.73133 6.07979 4.36931 6.07979 5.21995C6.07979 6.01743 5.38864 6.70857 4.59117 6.70857Z" fill="#252525"/>
<path d="M6.93043 3.41234C7.22405 3.41234 7.46208 3.17431 7.46208 2.88069C7.46208 2.58707 7.22405 2.34904 6.93043 2.34904C6.6368 2.34904 6.39878 2.58707 6.39878 2.88069C6.39878 3.17431 6.6368 3.41234 6.93043 3.41234Z" fill="#252525"/>
</g>
</svg>
