<svg width="25" height="24" viewBox="0 0 25 24" fill="none" xmlns="http://www.w3.org/2000/svg">
<g id="Sort">
<path id="Vector" d="M12.4961 9.41552C12.4277 9.48639 12.3459 9.54308 12.2556 9.58234C12.1652 9.6216 12.068 9.64267 11.9694 9.64434C11.8709 9.64601 11.773 9.62825 11.6814 9.59208C11.5897 9.55591 11.5061 9.50203 11.4353 9.43352L9.31239 7.38152V16.5113C9.31239 16.7102 9.23338 16.9009 9.09272 17.0416C8.95207 17.1823 8.76131 17.2613 8.56239 17.2613C8.36348 17.2613 8.17272 17.1823 8.03206 17.0416C7.89141 16.9009 7.81239 16.7102 7.81239 16.5113V7.38152L5.68952 9.43352C5.61916 9.50414 5.53542 9.56003 5.44321 9.59791C5.351 9.6358 5.25216 9.65492 5.15247 9.65416C5.05278 9.65339 4.95425 9.63276 4.86262 9.59348C4.771 9.55419 4.68813 9.49703 4.61886 9.42533C4.54958 9.35364 4.4953 9.26886 4.45917 9.17594C4.42305 9.08303 4.40581 8.98384 4.40847 8.88419C4.41113 8.78453 4.43363 8.6864 4.47465 8.59555C4.51567 8.50469 4.5744 8.42292 4.64739 8.35502L8.04114 5.07452C8.05352 5.06252 8.06814 5.05389 8.08127 5.04264L8.09364 5.03252C8.11014 5.01939 8.12514 5.00402 8.14239 4.99239L8.15102 4.98752C8.17164 4.97402 8.19302 4.96427 8.21439 4.95302C8.23614 4.94177 8.25752 4.92902 8.28002 4.91964C8.30337 4.91094 8.32715 4.90343 8.35127 4.89714C8.37077 4.89152 8.38989 4.88364 8.40977 4.87952L8.41952 4.87802C8.44352 4.87352 8.46752 4.87239 8.49189 4.87014C8.51364 4.86827 8.53539 4.86452 8.55752 4.86414L8.56239 4.86377L8.56689 4.86414C8.58902 4.86414 8.61039 4.86789 8.63252 4.87014C8.65652 4.87239 8.68052 4.87352 8.70452 4.87802L8.71502 4.87952C8.73452 4.88327 8.75327 4.89152 8.77239 4.89714C8.79663 4.90343 8.82054 4.91094 8.84402 4.91964C8.84777 4.92077 8.85152 4.92152 8.85452 4.92302C8.87327 4.93052 8.89052 4.94252 8.90852 4.95227C8.9306 4.96278 8.95213 4.97442 8.97302 4.98714L8.98277 4.99277C8.99777 5.00289 9.01052 5.01602 9.02477 5.02727L9.04427 5.04339C9.05702 5.05464 9.07127 5.06252 9.08364 5.07452L12.4774 8.35502C12.5483 8.42342 12.605 8.50511 12.6443 8.59543C12.6835 8.68574 12.7047 8.78291 12.7064 8.88139C12.7081 8.97986 12.6905 9.07772 12.6544 9.16936C12.6183 9.26101 12.5645 9.34466 12.4961 9.41552ZM20.3711 14.5845C20.3027 14.5136 20.2209 14.457 20.1306 14.4177C20.0402 14.3784 19.943 14.3574 19.8444 14.3557C19.7459 14.354 19.648 14.3718 19.5564 14.408C19.4647 14.4441 19.3811 14.498 19.3103 14.5665L17.1874 16.6185V7.48877C17.1874 7.28986 17.1084 7.09909 16.9677 6.95844C16.8271 6.81779 16.6363 6.73877 16.4374 6.73877C16.2385 6.73877 16.0477 6.81779 15.9071 6.95844C15.7664 7.09909 15.6874 7.28986 15.6874 7.48877V16.6185L13.5645 14.5665C13.4942 14.4959 13.4104 14.44 13.3182 14.4021C13.226 14.3642 13.1272 14.3451 13.0275 14.3459C12.9278 14.3466 12.8292 14.3673 12.7376 14.4066C12.646 14.4459 12.5631 14.503 12.4939 14.5747C12.4246 14.6464 12.3703 14.7312 12.3342 14.8241C12.298 14.917 12.2808 15.0162 12.2835 15.1159C12.2861 15.2155 12.3086 15.3136 12.3496 15.4045C12.3907 15.4954 12.4494 15.5771 12.5224 15.645L15.9161 18.9255C15.9293 18.9383 15.9446 18.9476 15.9589 18.9593C15.969 18.9679 15.9791 18.9769 15.99 18.9851C16.002 18.9938 16.0133 19.0039 16.0253 19.0121C16.0471 19.0254 16.0697 19.0376 16.0928 19.0485C16.1111 19.0583 16.128 19.0695 16.1471 19.0778L16.155 19.0808C16.1815 19.0904 16.2086 19.0986 16.236 19.1051C16.2536 19.1104 16.2705 19.1175 16.2885 19.1213L16.2941 19.122C16.3887 19.1407 16.4861 19.1407 16.5806 19.122L16.5859 19.1213C16.6043 19.1175 16.6208 19.11 16.6384 19.1051C16.6658 19.0986 16.6929 19.0904 16.7194 19.0808L16.7273 19.0778C16.7464 19.0695 16.7633 19.0583 16.7816 19.0485C16.8048 19.0376 16.8273 19.0254 16.8491 19.0121C16.8615 19.0039 16.8724 18.9938 16.8844 18.9851C16.8956 18.9769 16.9054 18.9679 16.9159 18.9589C16.9298 18.9476 16.9451 18.9383 16.9583 18.9251L20.3524 15.645C20.4233 15.5766 20.48 15.4949 20.5193 15.4046C20.5585 15.3143 20.5797 15.2171 20.5814 15.1187C20.5831 15.0202 20.5655 14.9223 20.5294 14.8307C20.4933 14.739 20.4395 14.6554 20.3711 14.5845Z" fill="#666666"/>
</g>
</svg>
