<svg width="24" height="24" viewBox="0 0 24 24" fill="none" xmlns="http://www.w3.org/2000/svg">
<g id="Filter">
<path id="Vector" d="M13.6004 8.80001H3.20039C2.98822 8.80001 2.78473 8.71573 2.63471 8.5657C2.48468 8.41567 2.40039 8.21219 2.40039 8.00001C2.40039 7.78784 2.48468 7.58436 2.63471 7.43433C2.78473 7.2843 2.98822 7.20001 3.20039 7.20001H13.6004C13.8126 7.20001 14.016 7.2843 14.1661 7.43433C14.3161 7.58436 14.4004 7.78784 14.4004 8.00001C14.4004 8.21219 14.3161 8.41567 14.1661 8.5657C14.016 8.71573 13.8126 8.80001 13.6004 8.80001ZM20.8004 8.80001H17.6004C17.3882 8.80001 17.1847 8.71573 17.0347 8.5657C16.8847 8.41567 16.8004 8.21219 16.8004 8.00001C16.8004 7.78784 16.8847 7.58436 17.0347 7.43433C17.1847 7.2843 17.3882 7.20001 17.6004 7.20001H20.8004C21.0126 7.20001 21.216 7.2843 21.3661 7.43433C21.5161 7.58436 21.6004 7.78784 21.6004 8.00001C21.6004 8.21219 21.5161 8.41567 21.3661 8.5657C21.216 8.71573 21.0126 8.80001 20.8004 8.80001Z" fill="#666666"/>
<path id="Vector_2" d="M15.6004 10.8C15.0466 10.8 14.5053 10.6358 14.0448 10.3281C13.5843 10.0205 13.2255 9.58316 13.0135 9.07153C12.8016 8.55989 12.7462 7.99691 12.8542 7.45376C12.9622 6.91061 13.2289 6.4117 13.6205 6.02011C14.0121 5.62853 14.511 5.36185 15.0541 5.25381C15.5973 5.14578 16.1603 5.20123 16.6719 5.41315C17.1835 5.62508 17.6208 5.98396 17.9285 6.44442C18.2362 6.90487 18.4004 7.44623 18.4004 8.00001C18.4004 8.74262 18.1054 9.45481 17.5803 9.97991C17.0552 10.505 16.343 10.8 15.6004 10.8ZM15.6004 6.80001C15.3631 6.80001 15.131 6.87039 14.9337 7.00225C14.7364 7.13411 14.5826 7.32152 14.4917 7.54079C14.4009 7.76006 14.3771 8.00134 14.4234 8.23412C14.4698 8.4669 14.584 8.68072 14.7519 8.84854C14.9197 9.01636 15.1335 9.13065 15.3663 9.17696C15.5991 9.22326 15.8403 9.19949 16.0596 9.10867C16.2789 9.01784 16.4663 8.86404 16.5982 8.6667C16.73 8.46936 16.8004 8.23735 16.8004 8.00001C16.8004 7.68175 16.674 7.37653 16.4489 7.15149C16.2239 6.92644 15.9187 6.80001 15.6004 6.80001ZM20.8004 16.8H10.4004C10.1882 16.8 9.98473 16.7157 9.83471 16.5657C9.68468 16.4157 9.60039 16.2122 9.60039 16C9.60039 15.7878 9.68468 15.5844 9.83471 15.4343C9.98473 15.2843 10.1882 15.2 10.4004 15.2H20.8004C21.0126 15.2 21.216 15.2843 21.3661 15.4343C21.5161 15.5844 21.6004 15.7878 21.6004 16C21.6004 16.2122 21.5161 16.4157 21.3661 16.5657C21.216 16.7157 21.0126 16.8 20.8004 16.8ZM6.40039 16.8H3.20039C2.98822 16.8 2.78473 16.7157 2.63471 16.5657C2.48468 16.4157 2.40039 16.2122 2.40039 16C2.40039 15.7878 2.48468 15.5844 2.63471 15.4343C2.78473 15.2843 2.98822 15.2 3.20039 15.2H6.40039C6.61256 15.2 6.81605 15.2843 6.96608 15.4343C7.11611 15.5844 7.20039 15.7878 7.20039 16C7.20039 16.2122 7.11611 16.4157 6.96608 16.5657C6.81605 16.7157 6.61256 16.8 6.40039 16.8Z" fill="#666666"/>
<path id="Vector_3" d="M8.39961 18.8C7.84582 18.8 7.30447 18.6358 6.84401 18.3281C6.38356 18.0205 6.02467 17.5832 5.81275 17.0715C5.60082 16.5599 5.54537 15.9969 5.65341 15.4538C5.76145 14.9106 6.02812 14.4117 6.41971 14.0201C6.8113 13.6285 7.31021 13.3619 7.85336 13.2538C8.3965 13.1458 8.95949 13.2012 9.47112 13.4132C9.98276 13.6251 10.4201 13.984 10.7277 14.4444C11.0354 14.9049 11.1996 15.4462 11.1996 16C11.1996 16.7426 10.9046 17.4548 10.3795 17.9799C9.85441 18.505 9.14222 18.8 8.39961 18.8ZM8.39961 14.8C8.16227 14.8 7.93027 14.8704 7.73293 15.0023C7.53559 15.1341 7.38178 15.3215 7.29095 15.5408C7.20013 15.7601 7.17637 16.0013 7.22267 16.2341C7.26897 16.4669 7.38326 16.6807 7.55108 16.8485C7.71891 17.0164 7.93272 17.1307 8.1655 17.177C8.39828 17.2233 8.63956 17.1995 8.85883 17.1087C9.0781 17.0178 9.26552 16.864 9.39737 16.6667C9.52923 16.4694 9.59961 16.2374 9.59961 16C9.59961 15.6818 9.47318 15.3765 9.24814 15.1515C9.0231 14.9264 8.71787 14.8 8.39961 14.8Z" fill="#666666"/>
</g>
</svg>
