<svg width="29" height="28" viewBox="0 0 29 28" fill="none" xmlns="http://www.w3.org/2000/svg">
<g id="call" clip-path="url(#clip0_504_3152)">
<path id="Vector" d="M12.0071 9.48824C12.4154 9.08461 12.7168 8.58576 12.8843 8.03662C13.0517 7.48749 13.0799 6.90533 12.9663 6.34259L12.1956 2.81069C12.0258 2.04226 11.5733 1.36576 10.9279 0.9155C10.2825 0.465238 9.4914 0.274141 8.71162 0.38015L4.04239 0.96252C3.13113 1.0811 2.30214 1.55067 1.7319 2.27128C1.16165 2.99188 0.895188 3.9066 0.98923 4.82072C1.70218 10.1932 4.15882 15.1832 7.98195 19.0245C11.8231 22.8467 16.8124 25.3027 22.1841 26.0155C23.0983 26.111 24.0136 25.8453 24.7346 25.2752C25.4556 24.705 25.9252 23.8757 26.0431 22.9641L26.6263 18.2931C26.7331 17.5124 26.5423 16.7201 26.0919 16.0736C25.6414 15.427 24.9643 14.9735 24.1949 14.8032L20.663 14.0324C20.1003 13.9195 19.5183 13.948 18.9693 14.1154C18.4203 14.2828 17.9214 14.5839 17.5174 14.9916L16.8408 15.6682C16.5746 15.9589 16.2123 16.1437 15.8207 16.1887C15.4291 16.2337 15.0344 16.1359 14.7092 15.9131C13.3695 14.8469 12.1548 13.6325 11.0882 12.293C10.8654 11.9677 10.7675 11.5728 10.8125 11.1811C10.8575 10.7893 11.0424 10.4269 11.3331 10.1605L12.0071 9.48824ZM10.7962 8.27725L10.1196 8.95383C9.52694 9.51465 9.16123 10.2738 9.09206 11.0868C9.02289 11.8998 9.25509 12.7098 9.74447 13.3627C10.8914 14.8052 12.1988 16.1125 13.6412 17.2594C14.2941 17.7485 15.104 17.9804 15.9168 17.9111C16.7296 17.8417 17.4886 17.476 18.0492 16.8835L18.7258 16.2069C18.9257 16.0001 19.174 15.8464 19.4483 15.7598C19.7226 15.6732 20.0141 15.6565 20.2965 15.711L23.8275 16.4818C24.1802 16.5589 24.4902 16.7678 24.6939 17.0658C24.8977 17.3638 24.9799 17.7284 24.9238 18.085L24.3414 22.756C24.2834 23.2144 24.0511 23.6329 23.6929 23.9247C23.3346 24.2165 22.8777 24.3592 22.417 24.3232C17.4151 23.6596 12.7692 21.373 9.19208 17.8144C5.6329 14.237 3.34627 9.59034 2.68324 4.58777C2.65117 4.1279 2.79572 3.67311 3.08743 3.31616C3.37914 2.9592 3.79602 2.72697 4.25307 2.66681C4.25307 2.66681 9.05847 2.06731 9.12442 2.06731C9.45057 2.06046 9.76893 2.16742 10.0248 2.36982C10.2806 2.57221 10.458 2.85741 10.5264 3.17638L11.2972 6.70657C11.3506 6.98917 11.3331 7.28064 11.2461 7.55479C11.1591 7.82894 11.0054 8.07719 10.7987 8.27725H10.7962Z" fill="#232222"/>
</g>
<defs>
<clipPath id="clip0_504_3152">
<rect width="27.3952" height="27.3952" fill="white" transform="translate(0.970703 0.351562)"/>
</clipPath>
</defs>
</svg>
