<svg width="29" height="28" viewBox="0 0 29 28" fill="none" xmlns="http://www.w3.org/2000/svg">
<g id="Location" clip-path="url(#clip0_504_3156)">
<path id="Vector" fill-rule="evenodd" clip-rule="evenodd" d="M14.4277 0.429688C8.26188 0.429688 3.25586 5.43571 3.25586 11.6016C3.25586 17.6191 8.49649 23.6794 11.6145 26.6917C13.1866 28.203 15.6688 28.202 17.239 26.6927C20.359 23.6794 25.5996 17.6191 25.5996 11.6016C25.5996 5.43571 20.5936 0.429688 14.4277 0.429688ZM14.4277 2.46094C19.4724 2.46094 23.5684 6.55594 23.5684 11.6016C23.5684 17.0687 18.6619 22.4942 15.8293 25.2302C15.0473 25.9818 13.8082 25.9828 13.0231 25.2282C10.1936 22.4942 5.28711 17.0687 5.28711 11.6016C5.28711 6.55594 9.38313 2.46094 14.4277 2.46094ZM14.4277 7.53907C12.1852 7.53907 10.3652 9.35907 10.3652 11.6016C10.3652 13.8431 12.1852 15.6641 14.4277 15.6641C16.6702 15.6641 18.4902 13.8431 18.4902 11.6016C18.4902 9.35907 16.6702 7.53907 14.4277 7.53907ZM14.4277 9.57032C15.549 9.57032 16.459 10.4803 16.459 11.6016C16.459 12.7228 15.549 13.6328 14.4277 13.6328C13.3065 13.6328 12.3965 12.7228 12.3965 11.6016C12.3965 10.4803 13.3065 9.57032 14.4277 9.57032Z" fill="#232222"/>
</g>
<defs>
<clipPath id="clip0_504_3156">
<rect width="27.3952" height="27.3952" fill="white" transform="translate(0.970703 0.429688)"/>
</clipPath>
</defs>
</svg>
